# xmcd
#
# Track frame offsets:
#	150
#	13027
#	23488
#	39647
#	51457
#	68711
#	81870
#	97134
#	110638
#	128072
#	150420
#	165537
#	176940
#	196029
#	211479
#	224565
#	235253
#
# Disc length: 3332 seconds
#
# Revision: 1
# Processed by: cddbd v1.5.2PL0 Copyright (c) Steve Scherf et al.
# Submitted via: audiograbber 1.83.01
#
DISCID=ed0d0211
DTITLE=G.B. Balding - Coal River Blues 
DYEAR=1900
DGENRE=
TTITLE0=Walking Blues
TTITLE1=Kansas City
TTITLE2=St. James Infirmary
TTITLE3=My Walking Stick
TTITLE4=Sweet Home Chicago
TTITLE5=Monday Morning Blues
TTITLE6=Come Back Baby
TTITLE7=Fool For A Cigarette
TTITLE8=Sowing on A Mountain
TTITLE9=Death Have No Mercy
TTITLE10=Nobody Knows You When You're Down and Out
TTITLE11=Deep River Blues
TTITLE12=One Meat Ball
TTITLE13=Milk Cow Blues
TTITLE14=Pay Day
TTITLE15=Bourgeois Blues
TTITLE16=Hurry Down Sunshine
EXTD=
EXTT0=
EXTT1=
EXTT2=
EXTT3=
EXTT4=
EXTT5=
EXTT6=
EXTT7=
EXTT8=
EXTT9=
EXTT10=
EXTT11=
EXTT12=
EXTT13=
EXTT14=
EXTT15=
EXTT16=
PLAYORDER=
